<svg width="215" height="78" viewBox="0 0 215 78" fill="none" xmlns="http://www.w3.org/2000/svg">
<path d="M60.154 29L56.15 21.928H54.434V29H50.794V10.852H57.606C59.01 10.852 60.206 11.1033 61.194 11.606C62.182 12.0913 62.9187 12.7587 63.404 13.608C63.9067 14.44 64.158 15.376 64.158 16.416C64.158 17.612 63.8113 18.6953 63.118 19.666C62.4247 20.6193 61.3933 21.278 60.024 21.642L64.366 29H60.154ZM54.434 19.198H57.476C58.464 19.198 59.2007 18.964 59.686 18.496C60.1713 18.0107 60.414 17.3433 60.414 16.494C60.414 15.662 60.1713 15.0207 59.686 14.57C59.2007 14.102 58.464 13.868 57.476 13.868H54.434V19.198ZM71.3503 13.79V18.34H77.4603V21.226H71.3503V26.036H78.2403V29H67.7103V10.826H78.2403V13.79H71.3503ZM88.0741 29.182C86.8088 29.182 85.6648 28.9653 84.6421 28.532C83.6368 28.0987 82.8395 27.4747 82.2501 26.66C81.6608 25.8453 81.3575 24.8833 81.3401 23.774H85.2401C85.2921 24.5193 85.5521 25.1087 86.0201 25.542C86.5055 25.9753 87.1641 26.192 87.9961 26.192C88.8455 26.192 89.5128 25.9927 89.9981 25.594C90.4835 25.178 90.7261 24.6407 90.7261 23.982C90.7261 23.4447 90.5615 23.0027 90.2321 22.656C89.9028 22.3093 89.4868 22.0407 88.9841 21.85C88.4988 21.642 87.8228 21.4167 86.9561 21.174C85.7775 20.8273 84.8155 20.4893 84.0701 20.16C83.3421 19.8133 82.7095 19.302 82.1721 18.626C81.6521 17.9327 81.3921 17.014 81.3921 15.87C81.3921 14.7953 81.6608 13.8593 82.1981 13.062C82.7355 12.2647 83.4895 11.658 84.4601 11.242C85.4308 10.8087 86.5401 10.592 87.7881 10.592C89.6601 10.592 91.1768 11.0513 92.3381 11.97C93.5168 12.8713 94.1668 14.1367 94.2881 15.766H90.2841C90.2495 15.142 89.9808 14.6307 89.4781 14.232C88.9928 13.816 88.3428 13.608 87.5281 13.608C86.8175 13.608 86.2455 13.79 85.8121 14.154C85.3961 14.518 85.1881 15.0467 85.1881 15.74C85.1881 16.2253 85.3441 16.6327 85.6561 16.962C85.9855 17.274 86.3841 17.534 86.8521 17.742C87.3375 17.9327 88.0135 18.158 88.8801 18.418C90.0588 18.7647 91.0208 19.1113 91.7661 19.458C92.5115 19.8047 93.1528 20.3247 93.6901 21.018C94.2275 21.7113 94.4961 22.6213 94.4961 23.748C94.4961 24.7187 94.2448 25.62 93.7421 26.452C93.2395 27.284 92.5028 27.9513 91.5321 28.454C90.5615 28.9393 89.4088 29.182 88.0741 29.182ZM110.262 10.852V13.79H105.426V29H101.786V13.79H96.9499V10.852H110.262ZM124.306 25.542H117.078L115.882 29H112.06L118.586 10.826H122.824L129.35 29H125.502L124.306 25.542ZM123.318 22.63L120.692 15.038L118.066 22.63H123.318ZM135.637 10.852V22.084C135.637 23.3147 135.958 24.2593 136.599 24.918C137.24 25.5593 138.142 25.88 139.303 25.88C140.482 25.88 141.392 25.5593 142.033 24.918C142.674 24.2593 142.995 23.3147 142.995 22.084V10.852H146.661V22.058C146.661 23.6007 146.323 24.9093 145.647 25.984C144.988 27.0413 144.096 27.8387 142.969 28.376C141.86 28.9133 140.62 29.182 139.251 29.182C137.899 29.182 136.668 28.9133 135.559 28.376C134.467 27.8387 133.6 27.0413 132.959 25.984C132.318 24.9093 131.997 23.6007 131.997 22.058V10.852H135.637ZM159.798 29L155.794 21.928H154.078V29H150.438V10.852H157.25C158.654 10.852 159.85 11.1033 160.838 11.606C161.826 12.0913 162.563 12.7587 163.048 13.608C163.551 14.44 163.802 15.376 163.802 16.416C163.802 17.612 163.455 18.6953 162.762 19.666C162.069 20.6193 161.037 21.278 159.668 21.642L164.01 29H159.798ZM154.078 19.198H157.12C158.108 19.198 158.845 18.964 159.33 18.496C159.815 18.0107 160.058 17.3433 160.058 16.494C160.058 15.662 159.815 15.0207 159.33 14.57C158.845 14.102 158.108 13.868 157.12 13.868H154.078V19.198ZM170.994 13.79V18.34H177.104V21.226H170.994V26.036H177.884V29H167.354V10.826H177.884V13.79H170.994ZM196.974 29H193.334L185.092 16.546V29H181.452V10.826H185.092L193.334 23.306V10.826H196.974V29ZM213.181 10.852V13.79H208.345V29H204.705V13.79H199.869V10.852H213.181ZM54.434 65.114H60.414V68H50.794V49.852H54.434V65.114ZM66.5756 49.852V61.084C66.5756 62.3147 66.8963 63.2593 67.5376 63.918C68.1789 64.5593 69.0803 64.88 70.2416 64.88C71.4203 64.88 72.3303 64.5593 72.9716 63.918C73.6129 63.2593 73.9336 62.3147 73.9336 61.084V49.852H77.5996V61.058C77.5996 62.6007 77.2616 63.9093 76.5856 64.984C75.9269 66.0413 75.0343 66.8387 73.9076 67.376C72.7983 67.9133 71.5589 68.182 70.1896 68.182C68.8376 68.182 67.6069 67.9133 66.4976 67.376C65.4056 66.8387 64.5389 66.0413 63.8976 64.984C63.2563 63.9093 62.9356 62.6007 62.9356 61.058V49.852H66.5756ZM92.2445 68L88.3185 61.89L84.7565 68H80.6485L86.3685 58.848L80.5705 49.852H84.7565L88.6825 55.936L92.2185 49.852H96.3265L90.6325 58.978L96.4305 68H92.2445ZM103.049 49.852V61.084C103.049 62.3147 103.369 63.2593 104.011 63.918C104.652 64.5593 105.553 64.88 106.715 64.88C107.893 64.88 108.803 64.5593 109.445 63.918C110.086 63.2593 110.407 62.3147 110.407 61.084V49.852H114.073V61.058C114.073 62.6007 113.735 63.9093 113.059 64.984C112.4 66.0413 111.507 66.8387 110.381 67.376C109.271 67.9133 108.032 68.182 106.663 68.182C105.311 68.182 104.08 67.9133 102.971 67.376C101.879 66.8387 101.012 66.0413 100.371 64.984C99.7294 63.9093 99.4087 62.6007 99.4087 61.058V49.852H103.049ZM127.21 68L123.206 60.928H121.49V68H117.85V49.852H124.662C126.066 49.852 127.262 50.1033 128.25 50.606C129.238 51.0913 129.974 51.7587 130.46 52.608C130.962 53.44 131.214 54.376 131.214 55.416C131.214 56.612 130.867 57.6953 130.174 58.666C129.48 59.6193 128.449 60.278 127.08 60.642L131.422 68H127.21ZM121.49 58.198H124.532C125.52 58.198 126.256 57.964 126.742 57.496C127.227 57.0107 127.47 56.3433 127.47 55.494C127.47 54.662 127.227 54.0207 126.742 53.57C126.256 53.102 125.52 52.868 124.532 52.868H121.49V58.198ZM149.196 49.852L143.06 61.682V68H139.42V61.682L133.258 49.852H137.366L141.266 58.146L145.14 49.852H149.196Z" fill="black"/>
<path d="M18.5003 48.8875C17.4674 48.8875 16.4191 48.6562 15.602 48.1783L7.12286 43.2912C3.66952 40.9633 3.45369 40.6087 3.45369 36.955V28.0442C3.45369 24.3904 3.65411 24.0358 7.04577 21.7387L15.5866 16.8054C17.2053 15.865 19.7491 15.865 21.3678 16.8054L29.8778 21.7079C33.3311 24.0358 33.547 24.3904 33.547 28.0442V36.9396C33.547 40.5933 33.3466 40.9479 29.9549 43.245L21.4141 48.1783C20.5816 48.6562 19.5332 48.8875 18.5003 48.8875ZM18.5003 18.4242C17.8528 18.4242 17.2207 18.5475 16.7736 18.8096L8.29452 23.7121C5.78161 25.4079 5.78161 25.4079 5.78161 28.0442V36.9396C5.78161 39.5758 5.78161 39.5758 8.35619 41.3179L16.7736 46.1742C17.6832 46.6983 19.3328 46.6983 20.2424 46.1742L28.7216 41.2717C31.2191 39.5758 31.2191 39.5758 31.2191 36.9396V28.0442C31.2191 25.4079 31.2191 25.4079 28.6445 23.6658L20.227 18.8096C19.7799 18.5475 19.1478 18.4242 18.5003 18.4242Z" fill="black"/>
<path d="M18.5 38.2812C15.3088 38.2812 12.7188 35.6912 12.7188 32.5C12.7188 29.3088 15.3088 26.7188 18.5 26.7188C21.6912 26.7188 24.2812 29.3088 24.2812 32.5C24.2812 35.6912 21.6912 38.2812 18.5 38.2812ZM18.5 29.0312C16.5883 29.0312 15.0312 30.5883 15.0312 32.5C15.0312 34.4117 16.5883 35.9688 18.5 35.9688C20.4117 35.9688 21.9688 34.4117 21.9688 32.5C21.9688 30.5883 20.4117 29.0312 18.5 29.0312Z" fill="black"/>
</svg>
